<?xml version="1.0" encoding="utf-8"?>
<!-- Generator: Adobe Illustrator 16.0.3, SVG Export Plug-In . SVG Version: 6.00 Build 0)  -->
<!DOCTYPE svg PUBLIC "-//W3C//DTD SVG 1.1//EN" "http://www.w3.org/Graphics/SVG/1.1/DTD/svg11.dtd">
<svg version="1.1" id="Layer_1" xmlns="http://www.w3.org/2000/svg" xmlns:xlink="http://www.w3.org/1999/xlink" x="0px" y="0px"
	 width="740.66px" height="9.678px" viewBox="0 0 740.66 9.678" enable-background="new 0 0 740.66 9.678" xml:space="preserve">
<line display="none" fill="none" stroke="#C2B59B" stroke-miterlimit="10" x1="59.131" y1="1.876" x2="640.99" y2="1.876"/>
<path d="M738.446,0.454c-3.446,3.451-8.969,4.875-12.177,0.262c-0.467-0.671-1.415-0.896-2.034-0.262
	c-2.559,2.622-6.081,4.439-8.054,0.262c-0.337-0.714-1.528-0.877-2.034-0.262c-3.486,4.242-8.663,3.639-12.383,0
	c-0.621-0.607-1.574-0.435-2.034,0.262c-2.635,3.99-7.465,3.741-10.142,0c-0.393-0.549-1.142-0.878-1.771-0.464
	c-3.92,2.576-8.041,5.483-11.524,0.464c-0.574-0.828-1.662-0.833-2.236,0c-3.317,4.813-11.714,7.338-14.138,0.31
	c-0.376-1.091-1.722-1.255-2.367-0.31c-3.329,4.873-8.228,3.553-11.72-0.262c-0.534-0.583-1.681-0.478-2.034,0.262
	c-2.102,4.39-7.712,6.662-9.096,0.31c-0.173-0.795-1.225-1.218-1.902-0.774c-3.948,2.581-8.993,5.576-12.441,0.464
	c-0.485-0.72-1.813-0.959-2.236,0c-1.952,4.414-7.813,5.78-9.553,0.31c-0.325-1.023-1.813-1.341-2.367-0.31
	c-2.875,5.353-7.16,4.913-10.143,0c-0.456-0.751-1.831-0.933-2.236,0c-2.146,4.944-7.228,2.754-9.886-0.262
	c-0.708-0.803-1.836-0.259-2.165,0.572c-2.115,5.339-7.14,3.281-9.554-0.31c-0.563-0.838-1.67-0.825-2.236,0
	c-2.944,4.288-7.076,5.203-9.684,0c-0.435-0.867-1.789-0.821-2.236,0c-2.792,5.121-8.155,4.644-11.061,0
	c-0.534-0.854-1.695-0.816-2.236,0c-3.527,5.314-6.858,3.781-10.345-0.262c-0.436-0.505-1.397-0.51-1.832,0
	c-2.862,3.36-8.396,6.439-10.672,0.572c-0.476-1.226-2.024-1.231-2.498,0c-2.341,6.083-5.578,2.607-7.261-0.31
	c-0.603-1.045-1.984-0.691-2.367,0.31c-2.215,5.784-5.422,1.749-6.805-0.31c-0.557-0.829-1.681-0.836-2.236,0
	c-3.338,5.02-8.227,6.083-11.059,0c-0.337-0.724-1.523-0.866-2.034-0.262c-3.302,3.911-7.533,6.187-10.343,0.262
	c-0.304-0.642-1.2-0.792-1.771-0.464c-1.904,1.092-3.705,2.351-5.575,3.5c-1.218,0.748-2.485,1.359-3.857,1.765
	c-2.824,0.834-3.465-2.518-3.795-4.49c-0.169-1.006-1.521-1.186-2.165-0.572c-2.014,1.921-3.956,3.658-6.655,4.487
	c-3.354,1.03-6.444-2.393-8.478-4.487c-0.592-0.609-1.604-0.44-2.034,0.262c-3.244,5.307-7.343,3.401-10.805-0.262
	c-0.543-0.574-1.674-0.484-2.034,0.262c-2.008,4.158-5.91,4.453-7.849,0c-0.41-0.942-1.771-0.741-2.236,0
	c-2.195,3.494-6.679,5.659-8.636,0.31c-0.351-0.958-1.387-1.221-2.165-0.572c-1.511,1.261-2.992,2.524-4.697,3.52
	c-2.84,1.659-5.226-1.7-6.767-3.52c-0.543-0.641-1.646-0.42-2.034,0.262c-2.822,4.945-6.428,4.305-9.226,0
	c-0.615-0.947-2.025-0.786-2.367,0.31c-1.771,5.679-5.97,3.125-8.179-0.31c-0.469-0.729-1.395-0.832-2.034-0.262
	c-2.819,2.512-7.509,7.091-9.297,0.572c-0.253-0.923-1.488-1.283-2.165-0.572c-3.069,3.228-7.901,7.142-10.214,0.572
	c-0.382-1.084-1.72-1.262-2.367-0.31c-0.938,1.677-2.194,3.054-3.768,4.133c-3.258,2.302-6.375-2.219-7.75-4.133
	c-0.533-0.741-1.745-0.93-2.236,0c-2.423,4.578-8.457,7.151-10.012,0.31c-0.217-0.954-1.505-1.249-2.165-0.572
	c-3.914,4.02-8.205,6.087-11.719,0.262c-0.531-0.88-2.176-0.853-2.367,0.31c-1.052,6.403-5.765,4.088-7.719-0.31
	c-0.371-0.835-1.452-0.728-2.034-0.262c-3.479,2.783-7.717,5.994-10.804,0.262c-0.412-0.766-1.437-0.804-2.034-0.262
	c-1.895,1.718-3.948,3.92-6.648,4.263c-2.51,0.318-5.13-2.795-6.649-4.263c-0.594-0.573-1.615-0.474-2.034,0.262
	c-2.141,3.763-7.014,6.483-8.179,0.31c-0.206-1.093-1.876-1.274-2.367-0.31c-2.692,5.293-6.993,3.469-9.886-0.262
	c-0.652-0.84-1.875-0.233-2.165,0.572c-1.784,4.95-5.795,3.306-7.719-0.31c-0.447-0.84-1.791-0.846-2.236,0
	c-3.078,5.844-7.034,3.93-10.345-0.262c-0.496-0.627-1.702-0.441-2.034,0.262c-1.02,2.158-2.13,4.003-4.188,5.343
	c-3.712,2.417-5.72-2.344-6.282-5.033c-0.227-1.083-1.867-1.285-2.367-0.31c-0.946,1.843-2.26,5.381-5.341,3.889
	c-1.757-0.851-3.24-2.754-4.544-4.151c-0.593-0.634-1.595-0.416-2.034,0.262c-2.624,4.052-7.665,6.646-9.553,0.31
	c-0.333-1.118-1.747-1.23-2.367-0.31c-1.257,1.865-2.41,3.365-4.591,4.217c-2.875,1.124-4.324-2.46-5.092-4.217
	c-0.383-0.876-1.834-0.818-2.236,0c-3.134,6.377-8.356,6.34-11.519,0c-0.494-0.99-2.136-0.76-2.367,0.31
	c-1.423,6.586-8.301,6.264-9.881,0c-0.242-0.957-1.483-1.242-2.165-0.572c-1.615,1.589-3.199,3.184-5.137,4.383
	c-2.687,1.662-5.482-2.787-6.785-4.383c-0.441-0.54-1.379-0.471-1.832,0c-2.456,2.552-6.392,4.841-8.51,0.262
	c-0.513-1.108-2.031-0.639-2.367,0.31c-0.909,2.561-2.793,7.365-6.245,4.501c-1.488-1.235-2.419-3.134-3.309-4.811
	c-0.482-0.909-1.722-0.767-2.236,0c-1.349,2.009-3.104,5.119-6.218,3.776c-1.812-0.782-3.263-2.63-4.586-4.038
	c-0.456-0.484-1.383-0.526-1.832,0c-1.577,1.851-3.116,3.473-5.177,4.803c-4.084,2.635-7.06-1.448-8.835-4.541
	c-0.41-0.715-1.457-0.862-2.034-0.262c-1.604,1.668-3.213,3.244-5.167,4.507c-3.731,2.41-6.28-1.479-7.929-4.245
	c-0.405-0.68-1.476-0.902-2.034-0.262c-1.149,1.317-2.219,2.484-3.672,3.494c-3.008,2.089-5.692-1.536-7.333-3.494
	c-0.587-0.7-1.579-0.348-2.034,0.262c-3.574,4.79-8.298,6.031-11.517,0c-0.503-0.943-1.688-0.724-2.236,0
	c-2.074,2.734-4.362,5.207-8.01,3.509c-1.896-0.882-3.507-2.445-5.087-3.771c-0.636-0.533-1.58-0.501-2.034,0.262
	c-3.898,6.552-10.775,9.087-13.68,0.31c-0.316-0.957-1.874-1.413-2.367-0.31c-0.927,2.073-1.927,4.067-4.224,4.927
	C6.866,6.847,3.733,2.529,2.127,0.454C1.105-0.865-0.714,0.982,0.295,2.286c4.639,5.992,10.889,8.062,14.95,2.089
	c1.297,2.659,3.321,5.101,6.441,5.286c4.517,0.268,7.74-2.818,10.078-6.331c2.239,1.952,5.032,4.324,7.913,4.196
	c2.999-0.133,5.002-1.812,6.783-3.926c3.903,5.56,9.546,4.636,13.923-0.253c4.313,4.543,8.261,4.46,12.59,0.146
	c1.454,2.269,3.454,4.743,6.203,4.82c3.646,0.103,6.473-2.363,8.927-4.856c4.766,6.967,10.744,5.782,16.308-0.194
	c4.609,4.512,8.553,5.352,12.621,0.477c1.488,2.567,3.792,5.75,6.68,5.497c2.979-0.261,4.565-2.466,5.673-4.963
	c2.825,3.47,6.697,2.174,10.167-0.985c1.539,1.952,3.648,4.513,6.105,4.513c2.909,0,5.227-2.064,7.26-4.088
	c2.838,5.948,10.238,6.291,13.192,0.61c3.852,5.156,9.655,5.075,13.4-0.335c3.146,4.824,7.906,4.034,11.611-0.079
	c2.848,5.308,8.65,4.041,12.414-0.543c4.209,4.154,8.007,5.613,11.401,1.103c2.863,6.509,9.706,5.147,13.461-0.843
	c4.142,4.466,8.644,5.225,12.184,0.149c3.067,3.82,7.764,4.038,10.352-0.125c3.472,3.425,8.051,4.104,11.194,0.628
	c2.359,4.69,7.953,3.304,11.184-0.91c2.107,1.971,4.334,3.711,7.344,3.939c2.669,0.201,5.263-2.041,7.286-3.916
	c3.502,5.01,8.114,3.292,12.676-0.064c3.002,5.02,8.791,6.172,11.052,0.935c3.75,4.157,8.317,3.175,12.629-0.557
	c2.593,5.929,9.397,4.866,13.102-0.114c4.376,5.093,9.023,5.326,13.34,0.267c2.923,5.169,7.857,3.657,12.125-0.154
	c2.536,5.632,7.431,3.183,11.782-0.437c3.505,4.458,8.416,5.591,11.098,0.635c3.541,3.905,8.004,3.978,11.296-0.433
	c4.464,4.58,7.925,3.618,12.683-0.083c2.69,4.622,7.822,4.157,11.29,0.318c2.789,3.972,7.688,3.772,10.525-0.27
	c4.237,3.785,9.101,4.547,12.748-0.08c5.515,5.086,10.412,5.01,16.018,0.409c2.457,7.732,9.831,2.736,15.388-0.594
	c3.306,5.61,8.384,4.597,12.608,0.396c3.577,5.682,9.479,4.805,13.584-0.085c3.017,3.409,6.857,4.034,9.319,0.374
	c2.945,3.498,6.924,3.836,9.479,0.21c3.201,4.371,8.844,3.118,12.814-0.787c4.24,4.362,8.541,4.869,12.387,0.24
	c3.755,4.366,9.615,4.675,13.234,0.241c3.355,4.708,8.28,3.976,11.994-0.316c3.656,4.024,9.244,4.718,12.238,0.045
	c3.549,3.008,8.812,3.995,11.698,0.241c3.606,4.367,8.614,4.671,12.105,0.245c2.959,4.424,9.161,4.086,12.281-0.352
	c3.8,3.881,8.708,2.448,13.279-0.269c2.339,5.854,9.072,5.122,12.486,0.098c4.12,3.628,9.326,4.146,13.156,0.294
	c3.687,6.235,12.147,4.816,16.822-0.326c3.877,4.25,8.272,2.657,13.034-0.345c3.623,3.947,9.234,4.154,12.806,0.162
	c4.184,3.336,9.775,3.885,13.806,0.243c2.642,3.556,6.904,2.546,10.204-0.237c4.239,4.546,10.858,3.441,15.25-0.956
	C741.458,1.103,739.627-0.729,738.446,0.454z"/>
</svg>
